<svg xmlns="http://www.w3.org/2000/svg" viewBox="0 0 48 48">
  <title>Logout</title>
  <path fill="#005BAC" fill-rule="evenodd" clip-rule="evenodd" d="M7.5 12.7c0-2.34 1.44-4.43 3.62-5.25L23.58 2.76C26.69 1.59 30 3.89 30 7.22v33.56c0 3.33-3.31 5.63-6.42 4.46l-12.46-4.69A5.6 5.6 0 0 1 7.5 35.3V12.7Zm12.2 13.46a2.16 2.16 0 1 0 0-4.32 2.16 2.16 0 0 0 0 4.32Z"/>
  <path fill="#005BAC" d="M23 9.2h16.5v12.1h-5.2v-6.9H23V9.2Z"/>
  <path fill="#005BAC" d="M34.3 33.6v-6.9h5.2v12.1H23v-5.2h11.3Z"/>
  <path fill="#005BAC" d="M28 21h10.45v-5.05L47 24l-8.55 8.05V27H28v-6Z"/>
</svg>
